<mxfile host="app.diagrams.net" modified="2023-05-16T04:49:29.452Z" agent="5.0 (Windows NT 10.0; Win64; x64) AppleWebKit/537.36 (KHTML, like Gecko) Chrome/113.0.0.0 Safari/537.36" etag="_m5RKalkTwfxmVqtitqe" version="21.0.6" type="github">
  <diagram name="Page-1" id="cUPxDQDcQTnUeFYrYolD">
    <mxGraphModel dx="1050" dy="483" grid="1" gridSize="10" guides="1" tooltips="1" connect="1" arrows="1" fold="1" page="1" pageScale="1" pageWidth="850" pageHeight="1100" math="0" shadow="0">
      <root>
        <mxCell id="0" />
        <mxCell id="1" parent="0" />
        <mxCell id="fViebsRX7NttPehX8GBR-9" style="edgeStyle=orthogonalEdgeStyle;rounded=0;orthogonalLoop=1;jettySize=auto;html=1;entryX=0;entryY=0.5;entryDx=0;entryDy=0;" edge="1" parent="1" source="fViebsRX7NttPehX8GBR-1" target="fViebsRX7NttPehX8GBR-2">
          <mxGeometry relative="1" as="geometry" />
        </mxCell>
        <mxCell id="fViebsRX7NttPehX8GBR-1" value="&lt;font style=&quot;font-size: 14px;&quot;&gt;Penentuan Masalah&lt;/font&gt;" style="rounded=0;whiteSpace=wrap;html=1;" vertex="1" parent="1">
          <mxGeometry x="40" y="40" width="200" height="80" as="geometry" />
        </mxCell>
        <mxCell id="fViebsRX7NttPehX8GBR-10" style="edgeStyle=orthogonalEdgeStyle;rounded=0;orthogonalLoop=1;jettySize=auto;html=1;" edge="1" parent="1" source="fViebsRX7NttPehX8GBR-2" target="fViebsRX7NttPehX8GBR-3">
          <mxGeometry relative="1" as="geometry" />
        </mxCell>
        <mxCell id="fViebsRX7NttPehX8GBR-2" value="&lt;span style=&quot;font-size: 14px;&quot;&gt;Kajian Literatur&lt;/span&gt;" style="rounded=0;whiteSpace=wrap;html=1;" vertex="1" parent="1">
          <mxGeometry x="320" y="40" width="200" height="80" as="geometry" />
        </mxCell>
        <mxCell id="fViebsRX7NttPehX8GBR-11" style="edgeStyle=orthogonalEdgeStyle;rounded=0;orthogonalLoop=1;jettySize=auto;html=1;entryX=0.5;entryY=0;entryDx=0;entryDy=0;" edge="1" parent="1" source="fViebsRX7NttPehX8GBR-3" target="fViebsRX7NttPehX8GBR-4">
          <mxGeometry relative="1" as="geometry">
            <Array as="points">
              <mxPoint x="700" y="190" />
              <mxPoint x="700" y="190" />
            </Array>
          </mxGeometry>
        </mxCell>
        <mxCell id="fViebsRX7NttPehX8GBR-3" value="&lt;span style=&quot;font-size: 14px;&quot;&gt;Desain Sistem&lt;br&gt;&lt;/span&gt;" style="rounded=0;whiteSpace=wrap;html=1;" vertex="1" parent="1">
          <mxGeometry x="600" y="40" width="200" height="80" as="geometry" />
        </mxCell>
        <mxCell id="fViebsRX7NttPehX8GBR-12" style="edgeStyle=orthogonalEdgeStyle;rounded=0;orthogonalLoop=1;jettySize=auto;html=1;" edge="1" parent="1" source="fViebsRX7NttPehX8GBR-4" target="fViebsRX7NttPehX8GBR-6">
          <mxGeometry relative="1" as="geometry" />
        </mxCell>
        <mxCell id="fViebsRX7NttPehX8GBR-4" value="&lt;span style=&quot;font-size: 14px;&quot;&gt;Pengumpulan Data&lt;br&gt;&lt;/span&gt;" style="rounded=0;whiteSpace=wrap;html=1;" vertex="1" parent="1">
          <mxGeometry x="600" y="200" width="200" height="80" as="geometry" />
        </mxCell>
        <mxCell id="fViebsRX7NttPehX8GBR-14" style="edgeStyle=orthogonalEdgeStyle;rounded=0;orthogonalLoop=1;jettySize=auto;html=1;" edge="1" parent="1" source="fViebsRX7NttPehX8GBR-5" target="fViebsRX7NttPehX8GBR-7">
          <mxGeometry relative="1" as="geometry" />
        </mxCell>
        <mxCell id="fViebsRX7NttPehX8GBR-5" value="&lt;span style=&quot;font-size: 14px;&quot;&gt;Implementasi dan Pengujian Sistem&lt;br&gt;&lt;/span&gt;" style="rounded=0;whiteSpace=wrap;html=1;" vertex="1" parent="1">
          <mxGeometry x="40" y="200" width="200" height="80" as="geometry" />
        </mxCell>
        <mxCell id="fViebsRX7NttPehX8GBR-13" style="edgeStyle=orthogonalEdgeStyle;rounded=0;orthogonalLoop=1;jettySize=auto;html=1;entryX=1;entryY=0.5;entryDx=0;entryDy=0;" edge="1" parent="1" source="fViebsRX7NttPehX8GBR-6" target="fViebsRX7NttPehX8GBR-5">
          <mxGeometry relative="1" as="geometry" />
        </mxCell>
        <mxCell id="fViebsRX7NttPehX8GBR-6" value="&lt;span style=&quot;font-size: 14px;&quot;&gt;Analisis Data&lt;br&gt;&lt;/span&gt;" style="rounded=0;whiteSpace=wrap;html=1;" vertex="1" parent="1">
          <mxGeometry x="320" y="200" width="200" height="80" as="geometry" />
        </mxCell>
        <mxCell id="fViebsRX7NttPehX8GBR-15" style="edgeStyle=orthogonalEdgeStyle;rounded=0;orthogonalLoop=1;jettySize=auto;html=1;" edge="1" parent="1" source="fViebsRX7NttPehX8GBR-7" target="fViebsRX7NttPehX8GBR-8">
          <mxGeometry relative="1" as="geometry" />
        </mxCell>
        <mxCell id="fViebsRX7NttPehX8GBR-7" value="&lt;span style=&quot;font-size: 14px;&quot;&gt;Evaluasi dan Kesimpulan&lt;br&gt;&lt;/span&gt;" style="rounded=0;whiteSpace=wrap;html=1;" vertex="1" parent="1">
          <mxGeometry x="40" y="360" width="200" height="80" as="geometry" />
        </mxCell>
        <mxCell id="fViebsRX7NttPehX8GBR-8" value="&lt;span style=&quot;font-size: 14px;&quot;&gt;Penyusunan Laporan Penelitian&lt;br&gt;&lt;/span&gt;" style="rounded=0;whiteSpace=wrap;html=1;" vertex="1" parent="1">
          <mxGeometry x="320" y="360" width="200" height="80" as="geometry" />
        </mxCell>
      </root>
    </mxGraphModel>
  </diagram>
</mxfile>
